# xmcd CD database file
#
# Track frame offsets:
#	150
#	31821
#	64516
#	89347
#	120641
#	146306
#
# Disc length: 2345 seconds
#
# Revision: 0
# Processed by: cddbd v1.5.2PL0 Copyright (c) Steve Scherf et al.
# Submitted via: CDex 1.70beta2
#
DISCID=44092706
DTITLE=King Curtis - Soul Meeting
DYEAR=1960
DGENRE=Jazz
TTITLE0=Soul Meeting
TTITLE1=Lazy Soul
TTITLE2=All The Way
TTITLE3=Jeep's Blues
TTITLE4=What Is This Thing Called Love?
TTITLE5=Do You Have Soul Now?
EXTD=YEAR: 1960
EXTT0=
EXTT1=
EXTT2=
EXTT3=
EXTT4=
EXTT5=
PLAYORDER=
